/* XPM */
static char *_1abc7c72dee4036b1aef58c489241d2[] = {
/* columns rows colors chars-per-pixel */
"64 64 256 2 ",
"   c #632916",
".  c #6F4C37",
"X  c #5D4333",
"o  c #3E7954",
"O  c #545350",
"+  c #795946",
"@  c #645B57",
"#  c #775957",
"$  c #6A4F48",
"%  c #507059",
"&  c #776558",
"*  c #706956",
"=  c #735B67",
"-  c #57736C",
";  c #686969",
":  c #7A6868",
">  c #7A7769",
",  c #796B74",
"<  c #68777A",
"1  c #787878",
"2  c #67716C",
"3  c #555765",
"4  c #8E5437",
"5  c #AB6739",
"6  c #956237",
"7  c #CC793A",
"8  c #985B48",
"9  c #885B55",
"0  c #885349",
"q  c #89644A",
"w  c #996749",
"e  c #886758",
"r  c #986958",
"t  c #8B735A",
"y  c #97765B",
"u  c #99744A",
"i  c #A76949",
"p  c #B77749",
"a  c #A66C57",
"s  c #A77658",
"d  c #B47859",
"f  c #AF6F49",
"g  c #8C5E65",
"h  c #876966",
"j  c #956B66",
"k  c #897569",
"l  c #987767",
"z  c #887877",
"x  c #977977",
"c  c #8F6D74",
"v  c #A77866",
"b  c #B67A66",
"n  c #A47B76",
"m  c #AE7370",
"M  c #A25D52",
"N  c #C67A46",
"B  c #C87B55",
"V  c #C17B6D",
"C  c #3A9871",
"Z  c #548D75",
"A  c #688879",
"S  c #788678",
"D  c #6F9476",
"F  c #62A576",
"G  c #5BC07E",
"H  c #B68558",
"J  c #AB8458",
"K  c #98856B",
"L  c #898578",
"P  c #978678",
"I  c #8F8D72",
"U  c #A88769",
"Y  c #B68767",
"T  c #A88878",
"R  c #B78975",
"E  c #A8967A",
"W  c #B79679",
"Q  c #B8966A",
"!  c #AE9F70",
"~  c #C98756",
"^  c #D78B57",
"/  c #D89658",
"(  c #D08A4D",
")  c #E99350",
"_  c #F3AA5B",
"`  c #C68867",
"'  c #C99667",
"]  c #D89767",
"[  c #C79878",
"{  c #D3926F",
"}  c #E4996C",
"|  c #D7A679",
" . c #D2A674",
".. c #E7A668",
"X. c #F0AE74",
"o. c #D8A559",
"O. c #FEC65C",
"+. c #CA8B3B",
"@. c #2C33B4",
"#. c #2A31A4",
"$. c #344DB6",
"%. c #3769AD",
"&. c #797885",
"*. c #777A99",
"=. c #6C718F",
"-. c #5056B8",
";. c #566DB3",
":. c #6977A7",
">. c #7777AA",
",. c #6769B7",
"<. c #716BB8",
"1. c #6A75B9",
"2. c #7777B9",
"3. c #6B69A7",
"4. c #5D6C95",
"5. c #2B39C5",
"6. c #1D2BC0",
"7. c #3550CB",
"8. c #356ACE",
"9. c #4B54CD",
"0. c #5967C6",
"q. c #5978CA",
"w. c #5976D5",
"e. c #516FD2",
"r. c #6968C8",
"t. c #6878CA",
"y. c #7877C8",
"u. c #6778D6",
"i. c #7274D3",
"p. c #6771E3",
"a. c #5A66E0",
"s. c #403BCB",
"d. c #877988",
"f. c #987C86",
"g. c #837798",
"h. c #897189",
"j. c #A77B83",
"k. c #867AAD",
"l. c #8074C0",
"z. c #3EAA9B",
"x. c #56908B",
"c. c #698886",
"v. c #788586",
"b. c #679788",
"n. c #779988",
"m. c #778596",
"M. c #689895",
"N. c #789997",
"B. c #698994",
"V. c #57AC90",
"C. c #66A68A",
"Z. c #69A896",
"A. c #76A799",
"S. c #71B091",
"D. c #718AB2",
"F. c #55B5AF",
"G. c #69A9A6",
"H. c #78B8A9",
"J. c #6EB5AF",
"K. c #5980B9",
"L. c #50CAB3",
"P. c #70CBB0",
"I. c #63C799",
"U. c #7786C7",
"Y. c #6F89D0",
"T. c #6DBDC4",
"R. c #6496D6",
"E. c #56CFD3",
"W. c #6FD0CE",
"Q. c #70E6D3",
"!. c #71DBE7",
"~. c #52EBEF",
"^. c #78E6E8",
"/. c #6EEDEF",
"(. c #52DBDA",
"). c #888587",
"_. c #978888",
"`. c #879787",
"'. c #989589",
"]. c #888698",
"[. c #978795",
"{. c #989796",
"}. c #899695",
"|. c #A68888",
" X c #A89689",
".X c #B89889",
"XX c #A79996",
"oX c #B59B99",
"OX c #AA898E",
"+X c #84A799",
"@X c #98A59A",
"#X c #89B094",
"$X c #B8A698",
"%X c #AFAB90",
"&X c #8786A7",
"*X c #9798A6",
"=X c #8C8CB6",
"-X c #A89BA4",
";X c #B191A5",
":X c #99A8A7",
">X c #9AB8B7",
",X c #8EB1AB",
"<X c #A7A9A7",
"1X c #B4A9A8",
"2X c #A9B6A9",
"3X c #B6B6A8",
"4X c #A8BAB7",
"5X c #B6B8B8",
"6X c #ADAAB6",
"7X c #C79B87",
"8X c #D09987",
"9X c #C8A789",
"0X c #D6A789",
"qX c #C5A996",
"wX c #C6B597",
"eX c #D8B79C",
"rX c #D3AD90",
"tX c #EEB489",
"yX c #C8B6A7",
"uX c #C7B9B5",
"iX c #D3B5A7",
"pX c #EABBA9",
"aX c #89C6BA",
"sX c #94CCB1",
"dX c #A7C8B8",
"fX c #B1C8B3",
"gX c #9FD5AA",
"hX c #F5C692",
"jX c #D4CAB2",
"kX c #E7C7A8",
"lX c #FCD6B8",
"zX c #F0CFAE",
"xX c #FDE6BC",
"cX c #DAC29C",
"vX c #8C8FD1",
"bX c #95AACF",
"nX c #A7A7D5",
"mX c #B0B1C9",
"MX c #8F98E4",
"NX c #A0A5DE",
"BX c #C2B7C8",
"VX c #90D2CD",
"CX c #A8C7C7",
"ZX c #A6D8D6",
"AX c #B5D2CC",
"SX c #92E7D5",
"DX c #91DDE6",
"FX c #87E8E9",
"GX c #86F8FB",
"HX c #98FAFC",
"JX c #91ECEE",
"KX c #ACEBEB",
"LX c #AADADD",
"PX c #D0D0CC",
"IX c #F2E8C8",
"UX c #DBE3DB",
/* pixels */
").fXhX! sXsXK aXW.W.{.R @XgXqXs ) s v & ) 5 b AXC.x W.ZXn + >Xz.L.C PX: oXJXaXT P.VXh s ( , bX, / | g dXC.} B h # j L.L.V.e X.XX",
"rXhX_ Y V.! A.^.VXSX^.[.k n.VX3XJ ] ( } H  XVXA.l d L.mXv ' c T S.D P ] J bXJ.w K H.CX XH ..d } / W AXaXS m +XGXDXW.k W.G y hXPX",
"H u H W S.'.^.5XY Y SXW.B Y Z VX XU uX_.K AXI.* y Y W.DXT l CXH.j ,X4Xy U LXE.d s t C.CXT K [ J s AXI.S d ,XGXmX{.KXDXx P.y _ X.",
"`.V.F ! A.D JX|.] H AXW.N O.Y S.Q.fXQ.SXgXS.U a @ C.v.W.GXFX~.B.d x./.!.FXW.S C.2 s y ,XUX>XaXCXPXVX> ] ) J.KXb / [.HXc.G.'.> l ",
"V.I.E L D '.P  X@X X X`.K x U P I > K * `.>X/ X.$XSX+ U n.c.DX~ hXB DXx.B.T . VX@X....2XH.A D S.J.n.m ( ` H.CXU Y OXSXL D aXF.V.",
"V.k J./.VXx 2XI.L.F.P.U J.GXQ.z / e w _  .%XY OXE [ X.u B ..%XI _.E 9X_ ( v X.Q  XW T 2X[ ( b + ^ w J.J.,Xj '.S.P.,Xh ).A.*Xl S.",
"P H.SX3X$X`.P.sXsXsX~.P.W }.ZXW.L P.E | |.=.:.;.*.x eXH { .Xx K.1.2.z 3X{ p rXK *.1.D.z $XhX+ I R H.GXLX6X'.P.sXSXP.A._.KXHXP.L ",
"S P.6X~ Y #XI.dX  E P.W.Y ~ P Q.D Z.ZXy *.e.u.R.w.1.: PX%X1 q.U.MXK.t.z 9XPXe =Xe.i.Y.t.< W AXn.&./.$Xs x W.VXfX%XZXP.|.m T FXW.",
"z Q.3Xb W S.F.gXK #XP.P.U s %X~.1 i | 1 w.vXg.].Y.w.P ~ U >.Y.=Xm.bXe.:.U H m.e.vXXXnXt.;.T rX& S HXl / W P.gXe   dXS.).' d mXW.",
"T Z.FXaX>X'.C.P.sXS.(.E 3XdX/.G.s ~ eX, q.vX. X nXe.d.( s D.Y.}.  :Xu.>.p B =.q.>X  T bX1.P kX7 1 GXdX.X.XS.V.#X%XaXQ. XU  XFXP.",
"^ y H.W.P.j E G I.C.n.u J.W.JXp X.s W K t.0.vXbXY.r.2 9X X].q.D.>XY.e.=.! ! < t.q.:XbXr.t.K { y ) c ~.HX,Xx sXI.L.I.#Xx JXHXF.e ",
"D P H ) p N.>XT U  X>X`.p B jXW qXW kXs &.t.w.K.D.*.d 2X$Xt t.q.w.0.:.t $X%XJ =.r.w.y.t.x U PX' zX] UXq n L P `.S.%X: P n.S j l ",
"P.H.l _ ) V.FXd o.K GXS X.cXe g.:.v.r ( d > =.f.x H zX4 | tX* d.4.=.e lXJ 6 lXu d.=.d.z H ) x L _._.U hXB n.LXr ~ x JXS 7 ) # D ",
"R fXC.I p ,X^.<XU wXQ.DX%Xv Y.e.Y.q.>.: wX%X9X[ 3X Xw s i u jXE qXm fX6 8 b 6 2XW 9X` fX .l g.w.Y.u.h.W } T.JXb f v HXc.) e S.fX",
"~ XXsX,XP m Z./.SX/.n.! E D.q.vXbXvXt.=.E S ^ J Z I.X M.P.J.E.i ..e (.Z.L.; X L.A ] s E  Xg.p.vXNXi.p.P qXdXE.KX<XKXE.k + F sX_.",
"o./ n dXS.^ [ `.A v.p tX_.;.Y._.  *Xi.=.Q _ q # O e G.SX>X2XSXn.u Z.VX+XVXW.2 > $ 9 i X.R 2.vX-X. nXu.D.W ..j W.!.E.t M P.AX).B ",
"`...H <XsXv L V.> ( f { U :.Y.=Xh bXt.*.l p < Q.VXL.Q.{.w i :X/.2 P.L 6 + aXW.F.aXV.0 } n 1.i.6X0 mXi.<.W X.a a $ S ` w P.<Xw B ",
"CX^ 0XVXD Y q AX9XkX..jX X=.q.t.R.e.U.g @XL.E.mX}.dXP @Xi +.'. X. oXl ) l {._.CX:XAXF.fXW d.a.Y.NXi.a.g..X8XY X.y Q.- $ n.>Xp i ",
".X..Y 3Xn./ O. .W P  XE ( y h K.1.;.2 0XH F.sXe 6 k {.'.iXX.kXH } ' hXo.uXz '.& 6 x /.J.] '.].y.t.t.h.r { eX[ $X9XkX6 a A >Xf i ",
"/ o.U fXS.' .X'.t.w.R.[.s (  Xl l K Y tXp Z.gXq ) 9X.Xf K S t * + * t @XQ d %XQ ( & KX@ } 0Xy U x T U _ d h >.g.z l lX4 +XoXa H ",
"o.%X%X#X#XfXk t.K.MXR.e.*.I fX/ X.U SX$ u D VX<X..tXK . h k |.A.%X'.S : n 4 9XX.^ 4XQ.k 4 - ZX~ lXb IXY 1 p.a.a.0.g.s 2XV.fXe H ",
"x dXV.I ^ [ v.q.vX_.<Xu.>.y ' q 6 x.Q.SX/.S . W eXe : XX+XwX@X}.'.{.<X3X@X`.* n kXK $ Z.Q.JX(.+ ^ a [ z r.i.nXmXi.0.z %X% F ZXl ",
",X#XS Y ..wX>.t.mX6 |.R.;.P tXs c.FX-Xh 2X`.( ~ $ _.fX Xm.=.;.:.-.<.3.*.}.<XyX: # ( w 5X}.x gXQ.: 8XkXf.r.bXe X NX0., 0XN @ S.fX",
"V.I d 1 W  .v.w.U.mXY.u.g.I I + Z.sX. ( 5 zXU $ qX2X).,.$.9.7.$.#.$.$.7.,.v.*XfXx q 0XeX5 p , KX@ *  .k r.i.&X<Xy.u.k { 5 * $ D ",
"J v ( S #XhXU =XR.1.w.K.l R E.D b.Q._.r X.| k N.3Xd.;.e.7.@.5.$.#.@.#.$.%.8.:.I jXz I X.| r  X^.> F KXb h.p.r.u.a.,.j jXV.$ 5 & ",
"V.J.L.K q / hXs *.*._.k kX~ X * J.+XT 2XrX& U ,X].;.5.5.$.;.:.m.1 < 3.-.$.7.8.;. X,X; R wX6XR E.n.* . hX|.&.>.,.g.z  .L C k * * ",
"VX,XCXP.t U f jX' ~ H kXf i & P.^.<X'.v i 2 @X|.8.%.$.5.D.t J Y U Q t v.;.@.$.9.=.1X.Xq N z  XAXGXS a ` [ 7Xb a U Y tX4 $ F.(.Q.",
"K f V !.A.~ o.%XJ ( Q $XN 5 x.SXl 0 :XQ 8 P #X3.9.%.$.m.s ! @XW XX.XwXK x ;.#.@.8.].>Xh p eX).0 2X/.l 4 W kXN p zX7X4 l T.^.).f.",
"> ( u VXZ ) wXk B.>.m.r 0X] }.ZX9 ( ] kX> qX'.;.$.6.D.h %XE n.Z x.I.n..XQ 1 -.$.7.*.2X).k hX) p ).SX. zXQ T c z k 7XX.+ /.P f a ",
"n.e XXE.SX9Xt Y.e.w.0.Y.* yXKXJXE t hXcX+X@Xv.e.$.$.< 9X{.x.C Z V.C Z T $Xl B.6.-.;.XX7Xt hX' 9 jX~.fXd d.2.a.a.:.d.R N./.*Xe j ",
"L.x J.x.J U ].w.U.,XD.w.&.$X1XS /.dXQ %X-X:X>.9.%.:.U [  X% F 4X'.>XC Z  X[ &.7.9.u.-X{.& 0X<XKXQ.v.9Xz ,.-.NXvX9.:.z sXz./.L S ",
"F I e f X. X:.y.&X  *Xu.4.yXhXu S O d [ 1X$X:.7.@.>.L  XA.o >Xe t XXC.Z 1X! > a.9.e.6X5Xh } 0 A.L ] eXf.9.MXr > i.r.k { 6 < 1 Z ",
"Z d C.> H I 4.e.=XL Y.0.4.rXY - VX{.i K 6X:Xk.-.-.<.K rX`.L.aXP j XXH.C.:XqXc 9.7.0.-XuXc ( k H.A H | h.r.MXc k MX$.d.| 5 2 , Z ",
"D & dXE.VXE k w.K.Y.R.D.j fXF.H.ZXdXwXT _.%X*.9.6.;._..XA.V.Z 4X@X2XC A.qXW d.$.$.,.1X:Xk kXuXCXVXF.jXl 2.-.vXMX9.1.1 $Xx.!.x < ",
"y ( j SXZ } $X< ,.,.4.- 7XT z.CXe | X.R d.%Xv.-.#.@.1 '.qXL V.o V.C F &X3Xl <.7.a.Y.yXN.z hX^ r 5X/.`.' z 2.a.r.t.v.b @X~.,X+ > ",
"& N P ^.L N  .P J K L T X.6 M.VX0 J yX8X@ :XoX-.5.#.1.> rX X'.S Z.G.}.tXR *.9.7.a.D.2XT T lXN 7 &.HX. hX} l , f.: R hX. (.1 i 6 ",
"H.L ZXL.K r u jXH ) [ jX. a M.FX<X).XXw w P eX*.7.7.7.=Xh '.9X9X.X8X%Xk P 0.6.7.u.XX>X& p .X@Xe AX~.L . U jXf N qX9X4 v E.VX9 : ",
"F.W.F.> + ..tXt 1 x k t hX5 O M.^._.z  Xs @ 1X@XD.8.$.@.Y.g.K U E U k k.0.6.s.9.k.iX).h B d.j.LX~.* 8 } [ .Xv t  X7X` r 3 E.GXVX",
"k + r V.A.] P *.0.q.K.=..XH V.t C.VX{.XXIX, 1 ,X*X;.-.$.7.9.;.>.k.3.r.5.@.9.9.<.6X3X9 0XiX@X<X(.< % @ 0X_.&.r.y.&._.pX& - z - c.",
"1 u l - %X|.g.q.U.Y.e.U.c 3XZ.@ H.bXq / ) eX; oX3X{.9.8.9.5.@.5.@.@.6.s.9.9.2.$XjXh oXtX) 5 '.FX* V.KXk =.a.p.i.p.k.l AXJ.c i : ",
"Z.2 h w ) T :.Y.].t bXw.4.R J 9 W.CXq f |.jX~ $ }.mX<X&Xt.7.-.-.9.9.9.9.r.;X<XuXx j tXpXf 5 [.JX2 0 ` P i.Y.*X-Xy.0.1 .Xh # # n.",
".XP.A f } E D.R.d.4 >Xi.k.[ ] r D W.CX:XJXd.f H 2 v 3X2XoX*Xk.y.<.3.l.&X6XiX5X, r _ 8 VXmX<XKXT.z ^ zXz t.NX0 0 NX0.&.pX] h 2 CX",
"r 3XaXZ @XP k.Y.MXbXMXR., .Xv ' B M.~.J.E.&.x kXzXv % &.uX3XfX3X3X5XjXjX<Xd.= U xX[ = G.W.Q.(.8 ^ 9 W x i.vXnX6Xy.r._.j : A >X|.",
"( y oXI.,X[ z Y.w.w.w.m.# wXiXkXrXfX*X4 a T.KXR } IXB i # 1 1 XX{.[.|.c g a rXzX} mX/.v.a e AXqXIX[ IXc m.r.vXy.y.&X_.UX< mXf.w ",
"a ' x dX. X.iXx {.d.].k _ U P 1 f.l .XIX4 W.<Xb ) %X.XB kX0X.Xa u OXT iX/ n qX[ _ g KXh.X.pXh -Xj.l x ] l ].k.D.[.-XrXh >X_.s [ ",
"T ( 1XV.D Y { jX0XiX$XxXs *.k.3.3.>.[.[ jX/.AXg g oXf.PX| X.lX` ..cXlXX.jXOXyXj i |.JXdX0XOX*XvXk.2.[.|.0X$X XP _.0X{ O :X@XU n ",
"T ( XXaX1 h A.CX8X| T yXv.2.l.NXNX,.=X_.zXN.DXAXAXZX1X[.o.Q 3X-X# AXR | f.qX1XLX6XKX,XIX.Xh.vXnXnX=X=Xc jX0XuX| PX_.X 1 b.mXr x ",
"~ ` j.dXk ~ ).1 r R tXiXOXD.NXk = NX:.f.jX~ 4.VXaXG./.5Xq t LXW.+XHXx f g KXE.T.SXW.& 0XOXk.l.mXx nXr.=.%X[ a 4 - - 0 @ dXf.v T ",
"Q oXPXA.z d A.bXT.`.^ rX[.U.NXf.x NX<.j.0XR d 0 Z * M.GXAXCXJX&.w W.KX*XCXFX&.+ O g J kXXXU.vX-X  6XU.k.1XX.c =.x.&.Y e n.mXk ~ ",
"|.AXA.< n M.GXLXKX/.+XjX_.k.r.NXmX<.k.{.iXU lX` PXN.# G.T.^.>Xd tXx GXVX!.A = VX1  .U f.|.[.y.nXnXk.3.f.$Xz z.JXLX^.&.= * n.5Xx ",
"PX,Xz { T ^.5Xj m PX/.eXOX;X2.3.,.D.f.Q IXqXyXOXIX} ` n i tXlX8XyX.XxXi n T a IXrXeX9XIX9X: k.;.2.<.>.: iXFXVXc l mX!.k j @ Z.6X",
"G.; { .., FXXX' d mX!.i IX` _.f.g._.Y ..j f.g.g.j jXzX4 xX Xc ).f._.x IXH U IXm _.f._.z Y ] j f.*.&.h UX[ D.LXn d f.DXh / v - A.",
"_.: P j _.|.OX_.f.XX}.j.f pXzXeXwXzXkXx nXl.i.l.l.f.7XlXR d.U.<.:.vX].R eXcXE d.<.,.<.=Xc ' kX[ 1XT pXa m +X{.z , _.M.1 q r O k ",
"n M.!.!.).T +XC.A.,X` N.Q.HX'...| | wX].y.NXnXNXi.=X.XhX_.2.r.nXNXl.<.f.iXiXx 2.,.nXvX<.&X_.kXU hXV KXF.B.= ].A `.c.: ; R.F.3 w ",
",X^.nX-X XN.S.CXP.S.:XXX5XLX/.=.j tX6X[.<.BX  ;Xi.vXR ' z >.MXd.$ nX3.:.a B g.-.nX. [.vX3.x hXH w M.DXZX{.[.n.A.A.D `.n 6XbXE.&.",
"J.CXa H [.S.dXv m sXZ._.d b DXF.M }  Xg.r.nXx nXy.k.n ~ [.3.vX[.@ nX<.g.p Y g.,.nX= [.2.3.R 0Xw 4.^._.# n &.H.b.].+Xx.&.e g VXG.",
"F.VXs ` [.C.sXj OXgXH._./ m LXJ.% PXkXx 1.2.MXy.p.h.OXIXx g.,.vXNX<.;.h.eX9X1 y.<.nXk.<.=XT PX- - DXj ~ x n.H.= $ >XD L v e bXF.",
":.!.AX4X|.,XF gXdXC.#X8X1XAXJXm.A [.tX1Xd.&X3.l.k.[.rX[ 7Xd.k.<.r.<.).OXtXwX].[.r.,.3.g.d.` 3XS , /.-Xz f.n.v.sX>Xb.x.T d.<XW.4.",
"@ m.!.Q.m.OXA.b.F #Xn *XHX~.m.V d = X.hX.X|.).T R pXtX4 zX7Xx f.j._.v lXp Y lXe f.&.c h iXtX0 9 v 4.Q.FX`.j c.n.A D , ).W.E.c.X ",
"A.S h c _._.OXK |..X_.P s P c k * ).l 8 UXhXIX| IXm M x # qXlX9XpX0XPX8 j h i IX[ jX{ UXr 8 j # h # 2 =.z & &.[.c.d.h < 3 3 < Z ",
"b.Z c.Z - SX6XH ` mX!.f O.` 9 Z.CXb.+X>XV.: ~ M M.A = E.FX/.J.b { ; FX!.E.4.= A.t { a Z N.M.Z :Xc.@ M N M T.-Xr y =XF.@ - =.% - ",
"Y a P C.K ^.mXs v CX!.d ` < ,X5X[.uXmX_.PXZ., 9 & &.~.CX[.6XGX}.c (.CX).AX!.&.e = ; - @X}.-X>X_.5XM.O a a E.nXq a *XW.O < h $ $ ",
"hX_ z V._.m.FXmXCXDXN.j h G.PXz ~ B Y J ;XCXc.# ` d.JXj.t x <X|.j._.c s j HXM.( @ - H.;Xe a d i 2 mXZ # j x.DXmXmXLX4X<XN.oXeX| ",
"mXtXT x.G ; G.T.E.G.h A ,XPXv ~ ' ` ` } ` .XAXA.h &.JXf.` k ].}.b.}.f.d h DXm.# x.4XOXl ~ s j H s |.4XM.3 0 D.!.W.G.; b.x.k cXmX"
};