/* XPM */
static char *c409b37ac5ae40e9f90744be6a0d10f5[] = {
/* columns rows colors chars-per-pixel */
"64 64 256 2 ",
"   c #170B09",
".  c #1E140D",
"X  c #1F180E",
"o  c #1C1312",
"O  c #191414",
"+  c #180F10",
"@  c #2C0200",
"#  c #2A0904",
"$  c #360802",
"%  c #23140E",
"&  c #28160B",
"*  c #37160B",
"=  c #221512",
"-  c #241A13",
";  c #2C1B14",
":  c #2A1A18",
">  c #331B14",
",  c #331E19",
"<  c #3A1A14",
"1  c #2D2217",
"2  c #33221B",
"3  c #3B251C",
"4  c #3C2B1D",
"5  c #372417",
"6  c #2C2524",
"7  c #3C2A22",
"8  c #372724",
"9  c #383232",
"0  c #440A02",
"q  c #461709",
"w  c #471B17",
"e  c #581809",
"r  c #6A1A08",
"t  c #721B07",
"y  c #651E13",
"u  c #432A1D",
"i  c #48271A",
"p  c #57281A",
"a  c #56331D",
"s  c #4C321C",
"d  c #77220E",
"f  c #682514",
"g  c #792917",
"h  c #7B341D",
"j  c #68250F",
"k  c #432B23",
"l  c #4B2C24",
"z  c #472B27",
"x  c #572925",
"c  c #453223",
"v  c #4B3325",
"b  c #4C332C",
"n  c #4A3829",
"m  c #533325",
"M  c #53342B",
"N  c #5B352B",
"B  c #543A2C",
"V  c #5C3B2C",
"C  c #593625",
"Z  c #4D3732",
"A  c #543B33",
"S  c #5B3C33",
"D  c #583834",
"F  c #632B28",
"G  c #633A2D",
"H  c #6A3C2E",
"J  c #663527",
"K  c #783725",
"L  c #633D32",
"P  c #6B3C33",
"I  c #693836",
"U  c #763B38",
"Y  c #6C2D2E",
"T  c #511F22",
"R  c #5A422D",
"E  c #5C4333",
"W  c #5C4439",
"Q  c #4B4231",
"!  c #66432C",
"~  c #79432C",
"^  c #644334",
"/  c #6B4335",
"(  c #644A35",
")  c #64453A",
"_  c #6B443A",
"`  c #654B3B",
"'  c #6C4B3B",
"]  c #6B4935",
"[  c #734434",
"{  c #744C3C",
"}  c #7B4D3C",
"|  c #784736",
" . c #6B523C",
".. c #655238",
"X. c #74533D",
"o. c #7A543B",
"O. c #68502C",
"+. c #58401E",
"@. c #684C42",
"#. c #734D42",
"$. c #7C4A40",
"%. c #6C5544",
"&. c #745343",
"*. c #7B5343",
"=. c #7C5B45",
"-. c #7D5C4B",
";. c #785848",
":. c #7C5A50",
">. c #7D644A",
",. c #726556",
"<. c #5A544C",
"1. c #872C18",
"2. c #8B331D",
"3. c #86351C",
"4. c #97361C",
"5. c #85220C",
"6. c #A63719",
"7. c #B83D1C",
"8. c #883925",
"9. c #9C3B23",
"0. c #963A26",
"q. c #833D31",
"w. c #A33E24",
"e. c #B03F21",
"r. c #9C422D",
"t. c #95442B",
"y. c #854937",
"u. c #974934",
"i. c #88553D",
"p. c #95543C",
"a. c #8A4529",
"s. c #A3422B",
"d. c #AB452B",
"f. c #B5482C",
"g. c #AC4B33",
"h. c #A54A34",
"j. c #B64D34",
"k. c #A8533A",
"l. c #B4543B",
"z. c #BA553A",
"x. c #81603F",
"c. c #C55639",
"v. c #D04D2F",
"b. c #833F40",
"n. c #835543",
"m. c #835D44",
"M. c #825B4D",
"N. c #8A5848",
"B. c #985945",
"V. c #855D52",
"C. c #934E49",
"Z. c #A65A46",
"A. c #B75B43",
"S. c #A95D55",
"D. c #83634C",
"F. c #89674A",
"G. c #96654A",
"H. c #8B6B53",
"J. c #886755",
"K. c #976A55",
"L. c #987659",
"P. c #8B7354",
"I. c #A8654A",
"U. c #BA6449",
"Y. c #A66A56",
"T. c #B86A55",
"R. c #A67759",
"E. c #B7755B",
"W. c #A8724E",
"Q. c #997963",
"!. c #897362",
"~. c #A77B63",
"^. c #B77A65",
"/. c #B36D64",
"(. c #C65D42",
"). c #D25E42",
"_. c #CB664A",
"`. c #C96549",
"'. c #D76749",
"]. c #C96B53",
"[. c #D76D52",
"{. c #C9765B",
"}. c #D7755A",
"|. c #D7704F",
" X c #E77759",
".X c #E36C4F",
"XX c #C47B67",
"oX c #D67E63",
"OX c #E87E61",
"+X c #B5835C",
"@X c #AD805F",
"#X c #96836F",
"$X c #A78667",
"%X c #B78868",
"&X c #B8956C",
"*X c #A98A76",
"=X c #B98B74",
"-X c #BA9676",
";X c #AA9371",
":X c #AB986D",
">X c #C88669",
",X c #DB8469",
"<X c #C4956C",
"1X c #C69877",
"2X c #D79779",
"3X c #CC8B72",
"4X c #E98668",
"5X c #E9947A",
"6X c #FA9576",
"7X c #EF8B6F",
"8X c #CAA57B",
"9X c #D3A67C",
"0X c #E1AD7D",
"qX c #F1805E",
"wX c #B1A599",
"eX c #CF9A86",
"rX c #E89D84",
"tX c #F19E88",
"yX c #C9A885",
"uX c #D3AC82",
"iX c #D5A585",
"pX c #DAB589",
"aX c #D8BA95",
"sX c #CFAF90",
"dX c #E2A78A",
"fX c #E5B888",
"gX c #EAAA94",
"hX c #E7B996",
"jX c #F7B797",
"kX c #F4A98C",
"lX c #F3BBA2",
"zX c #DAC498",
"xX c #E9C799",
"cX c #F7C999",
"vX c #F9D29E",
"bX c #F1C28D",
"nX c #D2CCB6",
"mX c #E9CBA6",
"MX c #F7CAA5",
"NX c #FDDCAC",
"BX c #F9D5A7",
"VX c #FADBB3",
"CX c #F2CBB3",
"ZX c #FDE4B4",
"AX c #FFEBBC",
"SX c #FAE4B8",
"DX c #FEE5B1",
"FX c #D7D6C5",
"GX c #FFF2C4",
"HX c #FFF6CB",
"JX c #FFFCD4",
"KX c #F8EBCD",
"LX c #FEFCF5",
"PX c #FFFEFB",
"IX c #F9F4E8",
"UX c #FBD8C2",
/* pixels */
"7X{.$ $ XX^.$ Y.tXA.].XXlX=X$.M.CXdXlXmXlXwX*X#X,.,.,.,...Q Q <.#X#XwX:X:XwXVXwX~.~.=XdX3XY.eXdXT.jX5XkX4XU.0X,Xc.OX Xf.l.3.y x ",
"].5XS.e /.u.Y.rXtXT.jXdX^.CXG.$ hX%XCXwXP.A c 5 7 1 1 1 1 5 4 4 4 Q ....#X;X$XCX=XY./.=XlX^.3XgX>XMX{.{.0XU.z.7XoXz.}.[.}.A.q.y ",
"oXA.,XtXXX$ f gX5XXXgXgXgXY.iXiXlXL.L.c ; . . . . X & X X X X X X 1 1 c n ,.#XL.hX1XI.^.lXdXrX3XI.jX2Xk.].7X`.z.}. X(.7XtX[.0.0.",
"7XoX].7XdXp.g jX,X2XeX0 3XCX^.eXeXR & X . . . . X - - - - - - - X 4 c c R  .H.H.sXlX2XE.gXB.rX2XB.I.,X{.k.U.,XU._.6X X6X'.OX].w.",
"/.XXtX7XoXtX5XkXoX2XgXq i.eXhXV.* & & & % 1 1 1 1 1 1 4 5 4 4 Q 9 +.n Q ......P.:X+X1XdXgXZ.p.>XXXu.I.oX].h.U.4X.X Xv.tX Xe.[..X",
"y 0 Z.5X,X}.5XtX,XkXY.} sX{ i 3   X & & 5 5 4 u 4 c c c Q Q R  .>.....O.....O.>.:X:XW.1XgXI.y.y.E.{.k.k.,X,X].6X[.7X(.e. X.Xe.(.",
"y.@ y XXXX5X5X,X{.lXy.@ Q.! & & > > 4 c n R R R ( ..( R R ..>.P.$X$X#XF.P.:X:XP.P.$X-XR.E.^.p.p.u.T.T.g.}.6X4X6Xj.'.OX).7.'. X(.",
"C.N.Y.t.0 S.5X5X,X,XiX[ s * > 3 s R  .o.o.D.F.F.=.F.D.X...>.L.L.:X8XzXpXaXxXmXzX8X#X&XzXG.I.E.k.u.k.,X{.,X|.z.6X_.d.(. X).). X.X",
"@ x 3XS.@ | Y.T.kX2XR.] q 5 i R O.F.@X%X&X<X&X&X%X:X$X@XL.$X&X<XzXBXSXAXAXAXAXDXDXzX:XzXxXx.p.E.Z.u.5XU.4X}.s.l.}.].f.c.qXqX Xv.",
"@ @ T.S.B.^.J $ E.2Xo.q s B ! o.G.+X&X<X0X0XfXxXxXbXfXpXyXuXaXxXvXDXAXAXSXDXSXDXDXDXDXzXzXzXp.<X+XU.4Xk.d.4X_.d.d._.|.j. X X X).",
"Z.q./.$ f 3XB.$ N.| p s C O.o.G.+X+X&X&X8X9X9X9XuXfXzXpXpXpXzXzXxXBXDXDXDXDXNXBXvXNXAXJXzXnX9X+Xu.T.5Xz.9.s._.`.g.j.7X XqX).f.'.",
"k.}.oX0 $ B.} %Xn.q s C ] x.G.W.+X+X+X+X+X<X<X8X9X9XpX9XuX9XpX9XuXpXzXxXxXvXvXcXbXzXSXJXJXAXmX:Xa.a.k.}.l.r.s.z.].j.qXc..X Xj.d.",
"_.j.].].k.Y.@ C a i C O.i.W.W.L.W.+X@X+X+X&X&X<X8X8X9XuX8X8X9X8X8X8XuXuXzXxXxXcXbXzXpXxXGXJXDXyXW.a.a.u.}.z.4.d.|.'.qXc.e.c. X).",
"oXoX_.A.}.E.a < i G O.i.G.G.W.W.W.+X+X+X<X<X8X8XuXpXpXpXbXzXzX9XyXyXyXzXxXcXvXxXbX0XfXuXzXAXAXzX0XW.u.9.d.|.[.g._.d.c.|.c.e.f..X",
"U.oX4XOXA.i.a i R O.o.G.i.G.R.+X<X9X0X0X0X0X0XbXzXbXxXxXxXxXBXBXmXmXvXBXSXSXNXBXvXfXfXbXpX8XDXpX8X8XE.g.4.}.|.}. Xs.4.z..X'.f.c.",
"y r Z.,XT.a a R ! ] i.i.G.+X&X9XpXbXvXvXvXvXvXvXvXNXNXBXBXBXNXZXDXDXAXAXGXAXAXZXvXvXxXvXNXzXzX8X:XcX>X{.l.`.z.6.|.|.f.d.7.'. X).",
"@ @ h I.| p s R C ! } G.%X<X1X<X1X9XiXxXcXMXBXNXBXNXZXNXNXZXZXNXSXAXAXGXHXJXAXSXAXAXAXAXAXSXzX8X+XzXvX+X|.,X(.6.9.z.`.z.6.v..X'.",
"V.w B.y.p s R u a ! G.%X%X$XL.F.D.F.L.;XeXyXpXhXmXzXmXBXcXmXmXhXaXaXaXaXsXsXyXsXzXzXSXJXJXHXBXsX$X:XNX<X3.`.+Xf.t.4.e.,X|.).).6.",
"H Y.XX~ a s 4 < i { K.m.] V C M l v ` >.J.H.J.L.=XeXyXyXyXyX-X-X-X*X$X#X!.,.;.%.,.#X:XsXSXHXHXzXP.>.uXvXa.3.h.U.z.w.4.|.c. XqX7.",
"@ e Y.f s 4 5 * p *./ i * & & & ; ; 7 A A S B ) #.!.Q.Q.$XQ.Q.L.L.J.-.%.Q n 3 2 1 5 O...,.:XSXmX@X>.$XxXp.3.3.9.l.`.j._.f.6.)..X",
"0 K C.q i * & < C P i * > , : : ; : ; 2 4 4 b b D @.:.J.J.D.:.-.;.` A c 7 2 ; 1 1 5 4 4 R ..:XSX:XO...8X+Xk.4.3.d.|._.qXc.6.6.f.",
"].XXy.* * * * i C i * 7 b Z Z Z Z z 7 8 8 3 7 7 Z D @.%.%.&.@._ A n b 7 7 7 c b Q R Q W W E O.sX8X+.+.@XW.A.k.a.w.(.4.z.qX(.w.4.",
"_.oXp.0 $ * * l l < l D I D I W A A Z Z b z k k Z Z @.@.%.@.) A v b B A A W W W W @.@.@.@.@.( >.8X..s >.i.3.h.z.z.|.r.1.4.z.'.f.",
"j.(.y.q # & i x w m S ) S D D D D Z b Z Z Z Z b Z D ) ;.!.J.%.B A S E W W S A S D W ) W ` @.&.D.:X>.s >.p.h h.A.z.`.g.9.2.4.f.|.",
".X[.u.$ $ > m p p S L S I D D N D D A Z b Z Z b Z D L Q.-X;XH.( E ^ E E S D D W W @.W D W ) @.-.$XP.i o.I.1.t.l.3.k.`.z.d.9.6._.",
"c.}.C.0 # w J a V L L N N D D D W D W Z Z Z z b b z ] -XxXBXyX=.^ S S A M A D W W %.:.;.` L ` &.L.$Xi ] T.U.l.z.2.2.9.l.l.f.f.).",
"t T.y.* # i H J I L N N x D N D D Z Z Z b b b 7 v i m.uXvXNXNXR.V V B b b Z Z S @.:.J.J.-.^ ^ _ P.yXs J I.l.`.A.d.2.3.4.d.z.j.).",
"t u.0 $ # x H J G N N N N x M b Z Z Z b 9 z 9 z k m R.pXvXNXvX8X! V B n 7 8 b Z W !.Q.L.H.#.^ ^ J.aX..a I.2.2.A.U.k.9.3.w.'.d.c.",
"g.8.@ * # M H H G N x x l l z 8 8 6 : 6 6 : 8 z k G @XpXBXDXcXfXF.a B > : 8 = = % 7 A &.J.=./ ( D.aXJ.a I.k.g g r.A.l.d.6.(.w.2.",
"`.k.q # # L H H J x l < < , <     +   6 8 = , z m o.E.pXNXDXvX0X<Xo.a 5 , 9 +       2 c u R ^ ] >.yX$XJ k.u.g h g 1.s.z.z._.f.1.",
"0.u.Y # < P P H N x < * # > 8 +       6 8 8 3 l o.G.>XhXNXZXcX0X0X8Xo.i 3 8 : % . o 7 c 5 s ! O.>.yX-X! Z.l.h.3.h 1.4.A.s.c.`.d.",
"Z.0 $ $ w | [ H J m l i 7 , 8 : : 6 6 : 8 k N K.$X%X2XbXAXZXvXbXfXfXiXF.s 3 3 8 8 7 k k E =.K.P.L.8XyXa h t.k.r.t.g 4.z.1.1.s.c.",
"0.$ $ $ p | [ [ / L N m m z k 8 7 7 4 z ^ H.-XiX+XE.<XjXGXGXBXcXbXbXvXbX<X} s i z Z B R =.L.$X1X1XpXaX! K j 1.r.g.l.w.j.0.1.1.1.",
"A.8.p $ F | | | _ _ P L N M l l m E *.Q.=X1XE.I.G.W.>XuXVXGXNXvX0XbXbXbXBXcX1XH.' ` { D.K.~.1XuXhXxXmX~ f h g g l.d.c.A.r.1.1.g ",
"(.}.y.$ H y.| | [ [ _ / L L / *.L.1XiXyX$Xi.~ G.G.E.XX3XMXBXcXvXbXbX0X2X2XcXBXBXhX1X%X%X1XiXpXhXxXNXVXG.a.d j 8.l.1.1.h.z.j.s.1.",
"6.g.a.0 U y.| y.} } } $.n.K.=XiXgXdX2XR.y.K %X2X+X+X%X>XiXjXjXcXvXvXcX0XI.XXdXMXNXVXVXVXVXSXVXmXBXZXDXW.p.k.0.d k.t.1.d 1.d.d.d.",
".Xc.g e ~ y.i.N.N.G.K.R.%XiXpXdXiX1XR.| J R.2X>XW.R.E.%X%X2XdXfXbXBXcXjX2Xa.W.1XgXMXNXHXJXJXJXHXGXSXZX@Xh k.k.d.j.4.d 1.3.5.9.j.",
"v.).g T y.y.n.N.G.R.^.3XeXiXiX1X=XK.$.x H Y.I.i.a.i.N.N.K.Y.^.%X<X9X2X9XkXG.U G.%XiXhXMXAXHXJXJXGXSXDX%Xe 3.s.d.A.k.0.2.d g 9.d.",
"v.f.y f | y.N.G.R.$X=X-X1X=X=X^.R.n.L x H | J C G U o.n.$.} N.N.i.o.y.N.>XG.J ] N.~.iXdXxXVXAXHXGXAXZX<Xj t.2.t 2.h.h.w.w.1.1.j.",
"v.f.y x ~ y.B.K.R.~.^.^.^.^.Q.Y.M._ N m F P i @ # i #.*.$.{ { H i @ @ F N.i.C G _ N.~.1XiXhXxXVXAXAXZX8Xj h t.h d r 2.w.w.g.w.j.",
"v.v.d x | y.N.L.K.Y.R.Y.Y.Q.V.V.*.I N M m N x < $ < M $._ _ ^ i < * w i / / ^ N G [ V.~.=XiXpXhXNXNXNX9Xa.0.0.t d K g y w.g.g.A.",
"v.c.y p ~ y.N.G.K.G.V.K.K.V.V.:.%.I S S m l l z z z z D L _ L S L S D m V / _ S N ) #.K.~.^.1XiXhXBXxX9Xt.t.r.t.g r g g h.9.5.9.",
"v.f.r p ~ | i.N.C.n.V.C.V.V.V.:.;._ ) S M l < , , k z z D S S S Z v z S &./ ' ) N L @.n.K.Q.$X3X9XpXfX<Xa.p.k.w.w.0.1.t 0.e.5.1.",
"v.v.e i H U | n.n.n.M.M.V.V.:.V.:.#.) I D z > % % : : w Z Z k 4 , 2 5 n !.P.] ` ) D @.#.M.V.~.$X&X8X9X&XK r 1.s.h.9.0.h.w.w.d g ",
"v.f.q w J P | o.$.n.*.M.M.M.M.V.J.;.` ' l > % % + = = = 8 8 : : = = % 4 >.$XD.E ` ) _ #.;.V.H.L.$X&X-X~.y.h r r g 0.w.j.j.e.0.5.",
"v.w.q i N ! | } n.$.M.*.-.-.M.J.J.=.] S 3 > % % = = + : 8 : # + = . & 4 ( H.Q.X.E @.` &.;.-.J.K.K.L.$XR.K g K 8.g g w.2.w.A.A.j.",
"c.9.0 i N H | #.{ *.M.*.;.;.-.-.&.E v Z < > ; : , , : : : : + = , ; 5 z %.=.>.D.E ( ` ' &.-.D.J.G.P.~.G.y.1.r e Y 2.w.d t d 2.w.",
").9.0 u m G / { *.*.$.;.*.*. .V v 2 u b M z T z T D D x b b z Z b z M ` D.-.X.>.R V ` ' *.-.M.J.H.P.L.i.0.C.0.2.d t 0.2.1.g y y ",
"f.1.0 k N N L | &.{ &.*.*.X.^ k 3 k b D D x D D D D I I I I I I I I I _ [ { M.S v n ^ &.;.m.>.D.H.F.P.~ a.u.4.9.d.9.s.d r f h 8.",
"c.0.$ u m N L _ &.{ *.*.*.' v 3 7 b M M z T T T T F F T F F D I I _ U U I I #.M u n E  .;.=.-.=.D.D.D.D.h 8.r.4.4.4.4.a.8.d r r ",
".XA.0 k i V L / _ { *.*.*.] l 5 k , , < w w w w T T T T T w T F Y x F T x x M z u 4 E %.=.-.-.=.>.D.D.O.m.p.I.k.k.k.k.t.8.t.t.q.",
"c.1.$ k l M N L / ' X.*.*.] v 3 z , , w T T T T T D Y Y I I b.V./.Y.C.q.T w < > 4 5 B &.>.D.>.=.X.%.>.C R &.n.n.i.i.G.k.p.p.p.S.",
"w.y $ 8 b x N N V ) #.;.X.] b u A B L I F F F Y Y Y U b.S.S./.eXgXgX/./.S.U i * 2 5 B  .D.J.>.=. ...E s & & * # > q q w e p p a ",
"y Y $ , l M N M M E _ #.&.^ B M ) / [ [ P Y Y Y Y U U b.C.C.S./././././.T./.N.M 3 4 B ' D.D.-.;.R ..m c 1 & = & * $ $ q w e e q ",
"n.I # > z D M l l S _ &.=.^ V ' &.&.{ [ | [ U U I I U b.b.b.b.C.C.Z.Z.Z.I./.L.] v k E  .D.>.&...R E n c ;   = 3 ~ g y y e K a.1.",
"M.x % % , l m k z B ^ @.;./ ^ X.*.n.} [ H H / [ I U _ I I I I U q.b.b.b.N.Y.R.=.V c ( &.=.>. .E m n u n & % = < y.r.0.0.1.1.9.t ",
"@.z % = ; z l k u b S ' ' / ` X.n.n.} [ ] ! V C C l k k k k i z I _ { o.N.K.@XF.! v ( ;.=.` ..n n k < z ,   o : q.0.2.0.0.0.0.1.",
"D : + o & , 7 u u v b ^ ) ^ ' *.*.n.} } } | L C i 3 < , , 5 2 5 k Z ^ { F.K.R.P. .B R %.%.R n Q 4 k , z , + : : P 0.w.0.4.0.9.0.",
"9 + + O o : , 8 k k b B ^ E ) { $.o.} } o.$.[ L l i u 3 u 3 3 < u M ' =.F.K.L.F. .C n .. .R 7 4 2 7 wXnXwX+ O O q p Y 8.s.0.e.g.",
"6 + : = + o - , 2 8 7 b R N B ^ X.X.| } o.n.*._ L B m S S S A k D G X.F.H.F.F.o.( Q n R ` B 4 2 - ,.KXLXPXwX6 O @.lXCXG.Y y 5.1.",
"O O 6 : O O = : : : 2 k c c m ) { { { } } } } [ / L N @.#.@._ L  .o.D.G.G.F.D.X.R 4 Q n Q 6 1 1 1 wXKXIXLXPX<.<.IXLXPXUXS.y y y ",
"+ 6 9 6 + O o o : : , 8 8 k M ' { X.o.} { ] { P L L _ #.#.#.[ #.=.o.F.x.F.L.>.O.Q 4 5 4 1 1 1 X ,.FXnXIXLXPXwXFXPXPXPXPXIXeXY Y ",
"O 9 9 9 O O o o O o : 1 ; 3 B ` ] X.{ ^ / G L G I L L #.#.#.{ =.D.F.P.x.F.L.F.R c 4 1 6 1 X O 6 wXFXFXIXPXPXLXLXPXPXPXPXPXLXeX#.",
"O 9 9 9 6 + + + o o - - : , M B C ^ V m C M N C ) L L _ #.{ *.=.D.F.F.o.x.P.H.( 4 6 1 1 X X O <.FXnXnXIXLXLXLXLXPXPXPXPXPXPXPXIX"
};
